<svg id="Layer_1" data-name="Layer 1" xmlns="http://www.w3.org/2000/svg" xmlns:xlink="http://www.w3.org/1999/xlink" viewBox="0 0 134.63 77.85"><defs><style>.cls-1,.cls-2,.cls-3,.cls-4{stroke:#2e3192;stroke-miterlimit:10;stroke-width:1.5px;}.cls-1{fill:url(#linear-gradient);}.cls-2{fill:url(#linear-gradient-2);}.cls-3{fill:url(#linear-gradient-3);}.cls-4{fill:url(#linear-gradient-4);}</style><linearGradient id="linear-gradient" x1="108.08" y1="44.7" x2="109.83" y2="137.95" gradientUnits="userSpaceOnUse"><stop offset="0" stop-color="#2e3192"/><stop offset="0.18" stop-color="#313494"/><stop offset="0.33" stop-color="#3c3f98"/><stop offset="0.46" stop-color="#4d50a1"/><stop offset="0.6" stop-color="#6668ac"/><stop offset="0.73" stop-color="#8588bb"/><stop offset="0.85" stop-color="#acaecd"/><stop offset="0.97" stop-color="#dadbe2"/><stop offset="1" stop-color="#e6e7e8"/></linearGradient><linearGradient id="linear-gradient-2" x1="62.26" y1="45.53" x2="64.01" y2="138.9" xlink:href="#linear-gradient"/><linearGradient id="linear-gradient-3" x1="79.79" y1="45.23" x2="81.54" y2="138.48" xlink:href="#linear-gradient"/><linearGradient id="linear-gradient-4" x1="146.07" y1="43.98" x2="147.82" y2="137.23" xlink:href="#linear-gradient"/></defs><path class="cls-1" d="M128.51,131.6c.34,1.82-1,4.19-2.32,5.37s-3.61,1.08-5.37,1a74,74,0,0,0-7.88-.07,24.06,24.06,0,0,1-6.78,0,7.94,7.94,0,0,1-3.44-1.63c-2.6-2.18-4.18-5.8-5.71-8.75a66.75,66.75,0,0,1-4.6-10.64q-.61-2-1.08-4c-.32-1.35-.58-2.7-.78-4.07s-.36-2.77-.47-4.16-.18-2.81-.24-4.21c0-.34,0-.68,0-1a60.87,60.87,0,0,1,1.38-12.9,52.41,52.41,0,0,1,4.19-12.1c1-2.09,2.25-4,3.41-6.07.58-1,1.1-2,1.7-3a6.13,6.13,0,0,1,2.09-2.23,8.13,8.13,0,0,1,3.72-.93c2.55-.15,5.13.1,7.69.1h7.36a17,17,0,0,1,3.57,0A4.41,4.41,0,0,1,127,64c2.21,2.77-.88,4.85-2,7.31-.87,1.92-1.75,3.84-2.51,5.8a59.08,59.08,0,0,0,1.6,46.38,34.62,34.62,0,0,0,2.79,5.2,8.15,8.15,0,0,1,1.61,2.83A.44.44,0,0,1,128.51,131.6Z" transform="translate(-32.69 -61.07)"/><path class="cls-2" d="M93.09,65.9A5.88,5.88,0,0,1,92,68.75c-.86,1.66-1.4,3.43-2.15,5.14-2.53,5.84-5.09,11.67-7.61,17.52L76,105.93q-3,7.08-6.1,14.15c-1.71,4-3.43,7.93-5.12,11.91-.81,1.91-1.56,4.23-3.56,5.19-3.41,1.63-7.7.78-11.33.74-2.41,0-4.82-.11-7.24-.11-3.15,0-7.67.31-8.87-3.45-1.59-5,2.68-10.3,4.68-14.52,1.74-3.66,3.42-7.34,5.12-11q3.33-7.18,6.67-14.36c2.82-6.06,5.67-12.09,8.64-18.07.87-1.74,1.71-3.49,2.47-5.28,1.3-3.06,2.19-8.56,6.15-9.19,2.25-.36,4.5.29,6.74.46a50.08,50.08,0,0,0,6.82.17c1.92-.11,3.83-.44,5.75-.55,2.48-.15,5.26.32,6.12,3A2.9,2.9,0,0,1,93.09,65.9Z" transform="translate(-32.69 -61.07)"/><path class="cls-3" d="M92.23,134.94a2.19,2.19,0,0,1,0,.51A3.05,3.05,0,0,1,89.41,138c-1.19.11-2.4-.09-3.6-.09-1.44,0-2.88,0-4.32,0s-3.16,0-4.74,0c-1.84,0-4.35.71-5.51-1.19-1.33-2.16.19-4,1.08-6,.6-1.32,1.18-2.65,1.79-4l.3-.66.41-.89c.44-1,.88-1.91,1.33-2.87,1-2.24,2.19-4.47,3.1-6.76a5,5,0,0,1,.88-1.68,1.93,1.93,0,0,1,2.81.21,5,5,0,0,1,.62,1.45c.2.53.44,1,.68,1.57.52,1.15,1.07,2.27,1.61,3.4.45.93.89,1.86,1.32,2.8l.38.83.9,1.94c.61,1.34,1.22,2.68,1.84,4,.51,1.12,1.15,2.21,1.62,3.34A3.67,3.67,0,0,1,92.23,134.94Z" transform="translate(-32.69 -61.07)"/><path class="cls-4" d="M166.51,131.6c.34,1.81-1,4.18-2.32,5.36s-3.61,1.09-5.37,1a74,74,0,0,0-7.88-.06,24.83,24.83,0,0,1-6.78,0,8.07,8.07,0,0,1-3.44-1.64c-2.6-2.17-4.18-5.8-5.71-8.74a66.47,66.47,0,0,1-4.6-10.65c-.41-1.31-.77-2.62-1.08-4s-.58-2.7-.78-4.07-.36-2.76-.47-4.16-.18-2.8-.24-4.21c0-.34,0-.68,0-1a60.73,60.73,0,0,1,1.38-12.9,51.86,51.86,0,0,1,4.19-12.11c1-2.08,2.25-4,3.42-6.06.57-1,1.09-2,1.69-3a6.21,6.21,0,0,1,2.09-2.23,8.12,8.12,0,0,1,3.72-.92c2.55-.15,5.13.1,7.69.1s4.91,0,7.36,0a17.75,17.75,0,0,1,3.57,0A4.47,4.47,0,0,1,165,64c2.21,2.77-.88,4.85-2,7.32-.87,1.91-1.75,3.83-2.51,5.8a59.08,59.08,0,0,0,1.6,46.38,34.52,34.52,0,0,0,2.79,5.19,8.19,8.19,0,0,1,1.61,2.84A.3.3,0,0,1,166.51,131.6Z" transform="translate(-32.69 -61.07)"/></svg>